<mxfile host="app.diagrams.net" modified="2023-03-04T21:07:42.168Z" agent="5.0 (Macintosh; Intel Mac OS X 10_15_7) AppleWebKit/605.1.15 (KHTML, like Gecko) Version/16.2 Safari/605.1.15" etag="Y2-p6y_2iHYsq0-xbmpw" version="21.0.2" type="github">
  <diagram name="Page-1" id="SS3sy76JZ0lEhDeixWL_">
    <mxGraphModel dx="670" dy="638" grid="1" gridSize="10" guides="1" tooltips="1" connect="1" arrows="1" fold="1" page="1" pageScale="1" pageWidth="850" pageHeight="1100" math="0" shadow="0">
      <root>
        <mxCell id="0" />
        <mxCell id="1" parent="0" />
        <mxCell id="YXxV-EYZ3SHVKw9pmJ1f-1" value="Traversal API" style="rounded=0;whiteSpace=wrap;html=1;" vertex="1" parent="1">
          <mxGeometry x="120" y="150" width="130" height="40" as="geometry" />
        </mxCell>
        <mxCell id="YXxV-EYZ3SHVKw9pmJ1f-2" value="Core API" style="rounded=0;whiteSpace=wrap;html=1;" vertex="1" parent="1">
          <mxGeometry x="260" y="150" width="130" height="40" as="geometry" />
        </mxCell>
        <mxCell id="YXxV-EYZ3SHVKw9pmJ1f-3" value="Cypher" style="rounded=0;whiteSpace=wrap;html=1;" vertex="1" parent="1">
          <mxGeometry x="400" y="150" width="130" height="40" as="geometry" />
        </mxCell>
        <mxCell id="YXxV-EYZ3SHVKw9pmJ1f-4" value="Lock Manager" style="rounded=0;whiteSpace=wrap;html=1;" vertex="1" parent="1">
          <mxGeometry x="120" y="200" width="200" height="40" as="geometry" />
        </mxCell>
        <mxCell id="YXxV-EYZ3SHVKw9pmJ1f-5" value="Page Cache" style="rounded=0;whiteSpace=wrap;html=1;" vertex="1" parent="1">
          <mxGeometry x="120" y="250" width="200" height="40" as="geometry" />
        </mxCell>
        <mxCell id="YXxV-EYZ3SHVKw9pmJ1f-6" value="Record Files" style="rounded=0;whiteSpace=wrap;html=1;" vertex="1" parent="1">
          <mxGeometry x="120" y="300" width="200" height="40" as="geometry" />
        </mxCell>
        <mxCell id="YXxV-EYZ3SHVKw9pmJ1f-7" value="Disks" style="rounded=0;whiteSpace=wrap;html=1;" vertex="1" parent="1">
          <mxGeometry x="120" y="350" width="410" height="40" as="geometry" />
        </mxCell>
        <mxCell id="YXxV-EYZ3SHVKw9pmJ1f-8" value="Transaction Management" style="rounded=0;whiteSpace=wrap;html=1;" vertex="1" parent="1">
          <mxGeometry x="330" y="200" width="200" height="65" as="geometry" />
        </mxCell>
        <mxCell id="YXxV-EYZ3SHVKw9pmJ1f-10" value="Transaction Log" style="rounded=0;whiteSpace=wrap;html=1;" vertex="1" parent="1">
          <mxGeometry x="330" y="275" width="200" height="65" as="geometry" />
        </mxCell>
      </root>
    </mxGraphModel>
  </diagram>
</mxfile>
